<svg width="96" height="96" xmlns="http://www.w3.org/2000/svg" xmlns:xlink="http://www.w3.org/1999/xlink" xml:space="preserve" overflow="hidden"><g transform="translate(-247 -291)"><path d="M326.258 329.875C325.874 328.706 325.455 327.546 325 326.393L316 324 306 330 305.911 329.975 306.876 321.729 315.876 320.529C318.853 320.132 321.076 317.592 321.076 314.589L321.076 313.882C321.076 313.379 320.686 312.963 320.184 312.931L305.484 311.988 317.064 304.872C317.489 304.611 320.215 303.219 319.44 301.686L319.147 301.209C316.682 296.426 311.792 295 306.593 296.39 304.075 297.064 301.642 297.707 300.248 298.056 298.448 298.368 296.623 298.507 294.797 298.471 287.25 298.574 281.136 304.626 280.957 312.171L280.643 323.243 275 327 266.788 321.751C263.162 329.244 261.188 337.428 261 345.75 261 365.75 272.893 382 295 382 316.5 382 329 365.75 329 345.75 328.925 340.347 328 334.99 326.258 329.875ZM293.258 305.166C294.1 304.837 296.086 304.91 296.441 305.818 296.796 306.726 295.384 308.126 294.541 308.455 293.698 308.784 291.712 308.711 291.358 307.803 291.004 306.895 292.415 305.5 293.257 305.166ZM295 376C274.333 376 267 359.7 267 345.75 267.049 341.521 267.677 337.32 268.864 333.261L278.721 344.561 288 336.112 298.666 345.812 308.466 338.312 313.144 341.012 321.668 335.612C322.516 338.926 322.963 342.329 323 345.75 323 360.807 314.342 376 295 376Z"/></g></svg>