<svg width="96" height="96" xmlns="http://www.w3.org/2000/svg" xmlns:xlink="http://www.w3.org/1999/xlink" xml:space="preserve" overflow="hidden"><defs><clipPath id="clip0"><rect x="402" y="435" width="96" height="96"/></clipPath></defs><g clip-path="url(#clip0)" transform="translate(-402 -435)"><path d="M479.909 493.912C485.846 493.906 490.732 498.581 490.989 504.512 491.004 504.846 491.004 505.185 490.989 505.52L490.986 505.57 490.986 505.62C490.805 509.072 489.232 512.303 486.626 514.574L485.852 515.174 485.852 525.173 476.09 525.173 476.09 519.946 472.072 519.946C471.404 519.961 470.748 519.772 470.189 519.405 469.329 518.82 468.815 517.846 468.816 516.806L468.816 516.752 468.816 514.105 468.816 512.105 465.531 512.105C465.521 512.105 465.518 512.098 465.523 512.09L468.546 506.823 468.811 506.361 468.811 505.565 468.81 505.52C468.538 499.397 473.273 494.21 479.396 493.924 479.567 493.916 479.739 493.912 479.909 493.912ZM479.305 491.926C472.076 492.255 466.483 498.382 466.812 505.611L466.812 505.828 463.812 511.055C462.767 512.668 463.768 513.974 464.901 514.105L466.817 514.105 466.817 516.723 466.817 516.806C466.816 519.644 469.117 521.946 471.956 521.946L474.09 521.946 474.09 527.173 487.852 527.173 487.852 516.153C491.107 513.626 493.004 509.731 492.987 505.611 493.005 505.215 493.005 504.818 492.987 504.422 492.67 497.427 486.911 491.918 479.909 491.912 479.909 491.912 479.507 491.917 479.305 491.926Z"/><path d="M462.719 496.356C463.136 496.356 463.474 496.694 463.473 497.111 463.473 497.528 463.134 497.866 462.717 497.865 462.667 497.865 462.617 497.86 462.567 497.85 462.28 497.774 462.056 497.55 461.98 497.262 461.896 496.853 462.16 496.454 462.569 496.371 462.619 496.361 462.669 496.356 462.719 496.356M462.719 494.356C461.198 494.356 459.964 495.589 459.964 497.111 459.965 498.632 461.198 499.865 462.72 499.865 462.778 499.865 462.836 499.863 462.895 499.86 464.255 499.723 465.331 498.647 465.468 497.287 465.565 495.768 464.413 494.459 462.895 494.361 462.836 494.357 462.778 494.356 462.719 494.356Z"/><path d="M454.057 488.915C455.6 488.916 456.85 490.168 456.849 491.711 456.849 493.255 455.597 494.505 454.053 494.504 453.994 494.504 453.935 494.502 453.877 494.499 452.498 494.359 451.409 493.269 451.269 491.891 451.17 490.349 452.34 489.02 453.882 488.921 453.94 488.918 453.998 488.916 454.056 488.915M454.027 486.915C451.379 486.932 449.246 489.092 449.263 491.74 449.279 494.388 451.439 496.521 454.087 496.504 454.139 496.504 454.191 496.503 454.243 496.501 456.714 496.337 458.682 494.369 458.846 491.898 458.95 489.252 456.889 487.023 454.244 486.919 454.181 486.917 454.118 486.915 454.056 486.915Z"/><path d="M440.592 441C440.609 441 440.746 441.002 440.798 441.003 444.505 441.113 447.705 443.63 448.687 447.206 448.69 447.217 448.698 447.218 448.704 447.208 450.225 444.891 452.809 443.494 455.58 443.491 460.158 443.504 463.866 447.212 463.879 451.79 463.878 452.43 463.796 453.066 463.634 453.685 463.632 453.693 463.637 453.698 463.645 453.696 464.264 453.534 464.9 453.452 465.539 453.451 470.124 453.5 473.8 457.256 473.751 461.841 473.703 466.26 470.202 469.867 465.787 470.046 465.713 470.049 465.507 470.052 465.464 470.052 465.459 470.052 465.455 470.056 465.455 470.061 465.052 474.288 461.504 477.518 457.258 477.524 456.998 477.524 456.737 477.512 456.473 477.487 454.916 477.34 453.432 476.753 452.196 475.794 452.186 475.786 452.179 475.79 452.181 475.802 452.227 476.097 452.254 476.395 452.261 476.693 452.255 481.282 448.533 484.999 443.944 485L443.932 485C439.647 484.993 436.068 481.732 435.665 477.465 435.663 477.452 435.656 477.449 435.648 477.461 434.119 479.585 431.662 480.844 429.045 480.844L429.024 480.844C424.445 480.83 420.737 477.121 420.724 472.543L420.724 471.81C420.725 471.805 420.722 471.801 420.717 471.8 420.715 471.8 420.713 471.8 420.711 471.801 419.668 472.26 418.545 472.512 417.406 472.543 417.376 472.543 417.346 472.543 417.317 472.543 412.732 472.54 409.018 468.821 409.021 464.236 409.024 459.689 412.685 455.991 417.232 455.941 417.261 455.941 417.377 455.941 417.406 455.941L417.407 455.941C418.045 455.942 418.681 456.025 419.299 456.186 419.308 456.189 419.313 456.183 419.311 456.175 419.144 455.557 419.061 454.92 419.066 454.281 419.079 449.702 422.789 445.993 427.368 445.981 429.221 445.987 431.023 446.595 432.5 447.715 432.503 447.718 432.509 447.719 432.512 447.715 432.514 447.714 432.515 447.712 432.515 447.709 433.241 443.82 436.635 441.001 440.592 441M440.592 439C436.665 439.001 433.086 441.251 431.384 444.79 430.109 444.261 428.743 443.986 427.362 443.981 421.817 444.008 417.279 448.402 417.072 453.944 411.384 454.081 406.885 458.803 407.022 464.491 407.157 470.08 411.726 474.541 417.317 474.543L417.46 474.542C417.942 474.529 418.423 474.484 418.899 474.407 419.823 479.287 424.078 482.825 429.045 482.844 431.034 482.842 432.979 482.256 434.638 481.158 437.113 486.295 443.284 488.452 448.421 485.976 451.243 484.616 453.295 482.048 453.999 478.995 454.74 479.243 455.507 479.405 456.285 479.479 456.607 479.508 456.935 479.524 457.257 479.524 461.906 479.541 465.977 476.408 467.152 471.91 472.762 470.971 476.549 465.661 475.61 460.051 474.805 455.244 470.742 451.659 465.873 451.46 465.668 445.914 461.126 441.517 455.577 441.491 453.282 441.49 451.054 442.263 449.253 443.684 447.335 440.8 444.118 439.047 440.655 439L440.592 439Z"/></g></svg>