<svg width="96" height="96" xmlns="http://www.w3.org/2000/svg" xmlns:xlink="http://www.w3.org/1999/xlink" xml:space="preserve" overflow="hidden"><defs><clipPath id="clip0"><rect x="588" y="359" width="96" height="96"/></clipPath></defs><g clip-path="url(#clip0)" transform="translate(-588 -359)"><path d="M621.221 435.034 618.221 429.808 618.221 429.591C618.549 422.363 612.956 416.238 605.729 415.91 598.502 415.582 592.376 421.174 592.048 428.402 592.03 428.798 592.03 429.195 592.048 429.591 592.031 433.711 593.927 437.604 597.182 440.13L597.182 451.147 610.944 451.147 610.944 445.922 613.078 445.922C615.916 445.922 618.217 443.621 618.217 440.783 618.217 440.755 618.216 440.728 618.216 440.7L618.216 438.083 620.132 438.083C621.265 437.952 622.266 436.646 621.221 435.034Z"/><path d="M625.068 421.093C625.068 422.614 623.835 423.847 622.314 423.847 620.793 423.847 619.56 422.614 619.56 421.093 619.56 419.572 620.793 418.339 622.314 418.339 623.835 418.339 625.068 419.572 625.068 421.093Z"/><path d="M635.769 415.694C635.769 418.341 633.623 420.487 630.976 420.487 628.329 420.487 626.183 418.341 626.183 415.694 626.183 413.047 628.329 410.901 630.976 410.901 633.623 410.901 635.769 413.047 635.769 415.694Z"/><path d="M669.91 379.361C669.204 379.362 668.502 379.454 667.82 379.634 668.006 378.953 668.098 378.249 668.093 377.543 668.078 372.528 664.015 368.467 659 368.454 656.964 368.46 654.985 369.13 653.365 370.363 652.572 366.076 648.82 362.973 644.46 363 640.328 363.046 636.728 365.829 635.643 369.817 633.979 367.269 631.143 365.731 628.1 365.727 623.086 365.741 619.025 369.802 619.01 374.816 619.011 375.522 619.103 376.225 619.283 376.907 618.601 376.727 617.898 376.635 617.192 376.634 612.172 376.687 608.145 380.799 608.198 385.819 608.25 390.764 612.246 394.761 617.192 394.813L617.283 394.813C617.752 399.778 622.157 403.423 627.122 402.954 628.836 402.792 630.468 402.144 631.826 401.085 631.826 401.358 631.735 401.721 631.735 402.085 631.742 407.116 635.826 411.188 640.857 411.181 645.561 411.174 649.486 407.587 649.915 402.903 651.593 405.249 654.302 406.638 657.186 406.63 662.2 406.615 666.261 402.554 666.276 397.54L666.276 396.722C667.423 397.228 668.658 397.506 669.911 397.54 674.931 397.593 679.043 393.566 679.096 388.546 679.148 383.526 675.122 379.414 670.102 379.361 670.038 379.36 669.975 379.36 669.911 379.361Z"/></g></svg>